<svg xmlns="http://www.w3.org/2000/svg" width="84.148" height="65.705"><path d="M75.009 0H9.139A9.15 9.15 0 000 9.139v47.426A9.15 9.15 0 009.139 65.7h65.87a9.15 9.15 0 009.139-9.139V9.139A9.15 9.15 0 0075.009 0zm1.4 31.617H56.483v-9.3a1.4 1.4 0 011.4-1.4h18.526zm-19.926 2.47h19.926v10.7H56.483zm22.4-6.587h2.8v10.7h-2.8zm0-2.47v-10.7h2.8v10.7zm-2.47-6.587h-18.53a3.874 3.874 0 00-3.87 3.87v35.652H30.135V7.74h44.874a1.4 1.4 0 011.4 1.4zM27.665 31.617H7.74v-10.7h19.925zM5.27 38.2h-2.8V27.5h2.8zm2.47-4.117h19.925v10.7H7.74zM43.309 5.27v-2.8h22.56v2.8zm-2.47 0h-22.56v-2.8h22.56zM27.665 7.74v10.7H7.74v-9.3a1.4 1.4 0 011.4-1.4zM5.27 25.03h-2.8v-10.7h2.8zm-2.8 15.644h2.8v10.7h-2.8zm5.27 6.587h19.925v10.7H9.139a1.4 1.4 0 01-1.4-1.4zm33.1 13.174v2.8H18.279v-2.8zm2.47 0h22.56v2.8H43.309zm13.174-2.47v-10.7h19.925v9.3a1.4 1.4 0 01-1.4 1.4zm22.4-17.291h2.8v10.7h-2.8zm2.8-31.535v2.717h-2.8V9.139a3.874 3.874 0 00-3.87-3.87H68.34v-2.8h6.669a6.677 6.677 0 016.669 6.67zM9.139 2.47h6.669v2.8H9.139a3.874 3.874 0 00-3.87 3.87v2.717H2.47V9.139A6.677 6.677 0 019.139 2.47zM2.47 56.57v-2.717h2.8v2.717a3.874 3.874 0 003.87 3.87h6.669v2.8h-6.67a6.677 6.677 0 01-6.669-6.675zm72.539 6.669H68.34v-2.8h6.669a3.874 3.874 0 003.87-3.87v-2.717h2.8v2.717a6.677 6.677 0 01-6.67 6.666z" fill="#fff" opacity=".22"/></svg>