<svg xmlns="http://www.w3.org/2000/svg" width="116.792" height="20.566"><path d="M10.92 19.786q-.832.208-2.2.442a18.882 18.882 0 01-3.156.234 6.7 6.7 0 01-2.626-.455 4.24 4.24 0 01-1.716-1.287 5.225 5.225 0 01-.936-1.963A10.236 10.236 0 010 14.248V6.656h2.418v7.072a6.131 6.131 0 00.78 3.536 3.038 3.038 0 002.626 1.066q.39 0 .806-.026t.78-.065q.366-.039.666-.078a1.95 1.95 0 00.429-.091V6.656h2.418zm12.064.78a9.233 9.233 0 01-3.458-.624 7.355 7.355 0 01-2.678-1.82 8.2 8.2 0 01-1.729-2.951 12.189 12.189 0 01-.611-4.017 10.932 10.932 0 01.689-4.017 8.708 8.708 0 011.859-2.951 7.862 7.862 0 012.73-1.82 8.877 8.877 0 013.328-.624 11.823 11.823 0 012.015.156 12.316 12.316 0 011.56.364 7.462 7.462 0 011.079.416 6.107 6.107 0 01.572.312l-.728 2.08a4.033 4.033 0 00-.676-.338q-.442-.182-1-.364a9.008 9.008 0 00-1.222-.3 7.69 7.69 0 00-1.339-.117 6.431 6.431 0 00-2.574.494 5.325 5.325 0 00-1.95 1.43 6.457 6.457 0 00-1.235 2.275 9.817 9.817 0 00-.429 3 10.726 10.726 0 00.377 2.938 6.442 6.442 0 001.131 2.275 5.08 5.08 0 001.881 1.473 6.262 6.262 0 002.639.52 9.674 9.674 0 002.886-.364 12.7 12.7 0 001.716-.65l.65 2.08a3.649 3.649 0 01-.65.325 8.919 8.919 0 01-1.17.377 14.6 14.6 0 01-1.635.312 14.777 14.777 0 01-2.028.13zm12.792-2.132q.858 0 1.521-.039a6.639 6.639 0 001.105-.143v-4.03a3.1 3.1 0 00-.845-.221 9.4 9.4 0 00-1.417-.091 9.155 9.155 0 00-1.157.078 3.565 3.565 0 00-1.118.325 2.4 2.4 0 00-.845.676 1.775 1.775 0 00-.338 1.131 1.942 1.942 0 00.832 1.807 4.331 4.331 0 002.262.507zm-.208-12.116a7.008 7.008 0 012.457.377 3.982 3.982 0 011.612 1.066 4.036 4.036 0 01.871 1.638 7.909 7.909 0 01.26 2.093v8.45l-.871.143q-.559.091-1.261.169t-1.521.143q-.819.065-1.625.065a8.9 8.9 0 01-2.106-.234 4.71 4.71 0 01-1.664-.741 3.393 3.393 0 01-1.092-1.339 4.687 4.687 0 01-.39-2 3.853 3.853 0 01.455-1.924 3.625 3.625 0 011.235-1.3 5.719 5.719 0 011.82-.728 9.924 9.924 0 012.184-.234q.364 0 .754.039t.741.1q.351.065.611.117t.364.078v-.676a5.437 5.437 0 00-.13-1.183 2.706 2.706 0 00-.468-1.04 2.37 2.37 0 00-.923-.728 3.619 3.619 0 00-1.521-.273 11.423 11.423 0 00-2.093.169 7.318 7.318 0 00-1.339.351l-.286-2a7.451 7.451 0 011.56-.4 13.474 13.474 0 012.366-.198zm14.2.052q.312 0 .715.039t.793.1q.39.065.715.13a4.363 4.363 0 01.481.117l-.416 2.106a8.1 8.1 0 00-.949-.247 8.318 8.318 0 00-1.7-.143 6.333 6.333 0 00-1.339.143q-.663.143-.871.2v11.361h-2.421V7.228a16.437 16.437 0 012.132-.585 13.7 13.7 0 012.856-.273zm13.78 3.146a4.977 4.977 0 00-1.274-.7 4.791 4.791 0 00-1.82-.338 3.888 3.888 0 00-1.781.377 3.27 3.27 0 00-1.209 1.04 4.393 4.393 0 00-.676 1.573 8.737 8.737 0 00-.212 1.948 5.241 5.241 0 001.17 3.653 4.011 4.011 0 003.12 1.287 12.467 12.467 0 001.651-.091 7.825 7.825 0 001.027-.195zm0-9.1L65.966 0v19.786q-.832.234-2.132.468a17.022 17.022 0 01-2.99.234 7.575 7.575 0 01-2.808-.494 6.017 6.017 0 01-2.132-1.4 6.2 6.2 0 01-1.365-2.223 8.533 8.533 0 01-.481-2.951 9.624 9.624 0 01.4-2.86 6.413 6.413 0 011.183-2.236 5.377 5.377 0 011.911-1.456 6.129 6.129 0 012.587-.52 6.282 6.282 0 012.067.312 6.527 6.527 0 011.339.6zm12.74 6.786q.754-.208 2.028-.468a15.9 15.9 0 013.12-.26 6.5 6.5 0 012.561.442 3.934 3.934 0 011.634 1.26 5.145 5.145 0 01.871 1.963 11.389 11.389 0 01.26 2.522v7.515h-1.686v-6.968a12.73 12.73 0 00-.2-2.418 4.032 4.032 0 00-.649-1.614 2.527 2.527 0 00-1.2-.9 5.432 5.432 0 00-1.859-.273 14.22 14.22 0 00-2.067.13 6.334 6.334 0 00-1.125.243v11.8h-1.69zm13.988 6.24a8.534 8.534 0 01.5-3.081 6.787 6.787 0 011.326-2.2 5.22 5.22 0 011.874-1.31 5.7 5.7 0 012.171-.429 5.069 5.069 0 013.939 1.612A7.189 7.189 0 01101.555 13q0 .208-.013.416t-.039.39h-9.437a5.945 5.945 0 001.222 3.8 4.561 4.561 0 003.64 1.326 7.355 7.355 0 002.184-.26 9.115 9.115 0 001.17-.442l.312 1.456a7.025 7.025 0 01-1.365.49 8.614 8.614 0 01-2.353.286 7.834 7.834 0 01-3.016-.52 5.4 5.4 0 01-2.054-1.456 5.756 5.756 0 01-1.17-2.223 10.34 10.34 0 01-.36-2.821zm9.538-1.066a5.339 5.339 0 00-.988-3.276 3.2 3.2 0 00-2.652-1.17 3.531 3.531 0 00-1.625.364 4.127 4.127 0 00-1.248.975 4.529 4.529 0 00-.832 1.417 5.812 5.812 0 00-.351 1.69zm16.978 1.092a8.69 8.69 0 01-.455 2.886 6.436 6.436 0 01-1.274 2.21 5.8 5.8 0 01-1.937 1.412 5.911 5.911 0 01-2.47.507 5.911 5.911 0 01-2.47-.507 5.8 5.8 0 01-1.937-1.417 6.436 6.436 0 01-1.274-2.21 8.69 8.69 0 01-.455-2.886 8.69 8.69 0 01.455-2.886 6.58 6.58 0 011.274-2.223 5.722 5.722 0 011.937-1.43 5.911 5.911 0 012.47-.507 5.911 5.911 0 012.47.507 5.722 5.722 0 011.937 1.43 6.58 6.58 0 011.274 2.223 8.69 8.69 0 01.455 2.891zm-1.794 0a6.345 6.345 0 00-1.17-4.017 3.814 3.814 0 00-3.172-1.5 3.814 3.814 0 00-3.172 1.5 6.345 6.345 0 00-1.17 4.017 6.289 6.289 0 001.17 4 3.827 3.827 0 003.172 1.482 3.827 3.827 0 003.172-1.474 6.289 6.289 0 001.17-4.008z" fill="#fff" opacity=".9"/></svg>