<svg xmlns="http://www.w3.org/2000/svg" width="84.148" height="65.705" viewBox="0 0 84.148 65.705"><path d="M75.009,56H9.139A9.15,9.15,0,0,0,0,65.139v47.426A9.15,9.15,0,0,0,9.139,121.7H75.009a9.15,9.15,0,0,0,9.139-9.139V65.139A9.15,9.15,0,0,0,75.009,56Zm1.4,31.617H56.483v-9.3a1.4,1.4,0,0,1,1.4-1.4H76.409Zm-19.926,2.47H76.409v10.7H56.483Zm22.4-6.587h2.8V94.2h-2.8Zm0-2.47v-10.7h2.8v10.7Zm-2.47-6.587H57.883a3.874,3.874,0,0,0-3.87,3.87v35.652H30.135V63.74H75.009a1.4,1.4,0,0,1,1.4,1.4ZM27.665,87.617H7.74v-10.7H27.665ZM5.27,94.2H2.47V83.5h2.8Zm2.47-4.117H27.665v10.7H7.74ZM43.309,61.27v-2.8h22.56v2.8Zm-2.47,0H18.279v-2.8h22.56ZM27.665,63.74v10.7H7.74v-9.3a1.4,1.4,0,0,1,1.4-1.4ZM5.27,81.03H2.47v-10.7h2.8ZM2.47,96.674h2.8v10.7H2.47Zm5.27,6.587H27.665v10.7H9.139a1.4,1.4,0,0,1-1.4-1.4Zm33.1,13.174v2.8H18.279v-2.8Zm2.47,0h22.56v2.8H43.309Zm13.174-2.47v-10.7H76.409v9.3a1.4,1.4,0,0,1-1.4,1.4Zm22.4-17.291h2.8v10.7h-2.8Zm2.8-31.535v2.717h-2.8V65.139a3.874,3.874,0,0,0-3.87-3.87H68.34v-2.8h6.669A6.677,6.677,0,0,1,81.678,65.139ZM9.139,58.47h6.669v2.8H9.139a3.874,3.874,0,0,0-3.87,3.87v2.717H2.47V65.139A6.677,6.677,0,0,1,9.139,58.47Zm-6.669,54.1v-2.717h2.8v2.717a3.874,3.874,0,0,0,3.87,3.87h6.669v2.8H9.139A6.677,6.677,0,0,1,2.47,112.565Zm72.539,6.669H68.34v-2.8h6.669a3.874,3.874,0,0,0,3.87-3.87v-2.717h2.8v2.717A6.677,6.677,0,0,1,75.009,119.235Z" transform="translate(0 -56)" fill="#fff" opacity="0.22"/></svg>