<svg xmlns="http://www.w3.org/2000/svg" width="116.792" height="20.566" viewBox="0 0 116.792 20.566"><path d="M12.844-.39q-.832.208-2.2.442A18.882,18.882,0,0,1,7.488.286,6.7,6.7,0,0,1,4.862-.169,4.24,4.24,0,0,1,3.146-1.456,5.225,5.225,0,0,1,2.21-3.419a10.236,10.236,0,0,1-.286-2.509V-13.52H4.342v7.072a6.131,6.131,0,0,0,.78,3.536A3.038,3.038,0,0,0,7.748-1.846q.39,0,.806-.026t.78-.065Q9.7-1.976,10-2.015a1.95,1.95,0,0,0,.429-.091V-13.52h2.418ZM24.908.39A9.233,9.233,0,0,1,21.45-.234a7.355,7.355,0,0,1-2.678-1.82,8.2,8.2,0,0,1-1.729-2.951,12.189,12.189,0,0,1-.611-4.017,10.932,10.932,0,0,1,.689-4.017A8.708,8.708,0,0,1,18.98-15.99a7.862,7.862,0,0,1,2.73-1.82,8.877,8.877,0,0,1,3.328-.624,11.823,11.823,0,0,1,2.015.156,12.316,12.316,0,0,1,1.56.364,7.462,7.462,0,0,1,1.079.416,6.107,6.107,0,0,1,.572.312l-.728,2.08a4.033,4.033,0,0,0-.676-.338q-.442-.182-1-.364a9.008,9.008,0,0,0-1.222-.3,7.69,7.69,0,0,0-1.339-.117,6.431,6.431,0,0,0-2.574.494,5.325,5.325,0,0,0-1.95,1.43,6.457,6.457,0,0,0-1.235,2.275,9.817,9.817,0,0,0-.429,3,10.726,10.726,0,0,0,.377,2.938,6.442,6.442,0,0,0,1.131,2.275A5.08,5.08,0,0,0,22.5-2.34a6.262,6.262,0,0,0,2.639.52,9.674,9.674,0,0,0,2.886-.364,12.7,12.7,0,0,0,1.716-.65l.65,2.08a3.649,3.649,0,0,1-.65.325,8.919,8.919,0,0,1-1.17.377A14.6,14.6,0,0,1,26.936.26,14.777,14.777,0,0,1,24.908.39ZM37.7-1.742q.858,0,1.521-.039a6.639,6.639,0,0,0,1.105-.143v-4.03a3.1,3.1,0,0,0-.845-.221,9.4,9.4,0,0,0-1.417-.091,9.155,9.155,0,0,0-1.157.078,3.565,3.565,0,0,0-1.118.325,2.4,2.4,0,0,0-.845.676,1.775,1.775,0,0,0-.338,1.131,1.942,1.942,0,0,0,.832,1.807A4.331,4.331,0,0,0,37.7-1.742Zm-.208-12.116a7.008,7.008,0,0,1,2.457.377,3.982,3.982,0,0,1,1.612,1.066,4.036,4.036,0,0,1,.871,1.638,7.909,7.909,0,0,1,.26,2.093v8.45l-.871.143Q41.262,0,40.56.078T39.039.221q-.819.065-1.625.065A8.9,8.9,0,0,1,35.308.052a4.71,4.71,0,0,1-1.664-.741,3.393,3.393,0,0,1-1.092-1.339,4.687,4.687,0,0,1-.39-2,3.853,3.853,0,0,1,.455-1.924,3.625,3.625,0,0,1,1.235-1.3,5.719,5.719,0,0,1,1.82-.728,9.924,9.924,0,0,1,2.184-.234q.364,0,.754.039t.741.1q.351.065.611.117t.364.078v-.676a5.437,5.437,0,0,0-.13-1.183,2.706,2.706,0,0,0-.468-1.04,2.37,2.37,0,0,0-.923-.728,3.619,3.619,0,0,0-1.521-.273,11.423,11.423,0,0,0-2.093.169,7.318,7.318,0,0,0-1.339.351l-.286-2a7.451,7.451,0,0,1,1.56-.4A13.474,13.474,0,0,1,37.492-13.858Zm14.2.052q.312,0,.715.039t.793.1q.39.065.715.13a4.363,4.363,0,0,1,.481.117l-.416,2.106a8.1,8.1,0,0,0-.949-.247,8.318,8.318,0,0,0-1.7-.143,6.333,6.333,0,0,0-1.339.143q-.663.143-.871.2V0H46.7V-12.948a16.437,16.437,0,0,1,2.132-.585A13.7,13.7,0,0,1,51.688-13.806Zm13.78,3.146a4.977,4.977,0,0,0-1.274-.7,4.791,4.791,0,0,0-1.82-.338,3.888,3.888,0,0,0-1.781.377,3.27,3.27,0,0,0-1.209,1.04,4.393,4.393,0,0,0-.676,1.573A8.737,8.737,0,0,0,58.5-6.76a5.241,5.241,0,0,0,1.17,3.653A4.011,4.011,0,0,0,62.79-1.82a12.467,12.467,0,0,0,1.651-.091,7.825,7.825,0,0,0,1.027-.195Zm0-9.1,2.418-.416V-.39q-.832.234-2.132.468a17.022,17.022,0,0,1-2.99.234,7.575,7.575,0,0,1-2.808-.494,6.017,6.017,0,0,1-2.132-1.4,6.2,6.2,0,0,1-1.365-2.223,8.533,8.533,0,0,1-.481-2.951,9.624,9.624,0,0,1,.4-2.86,6.413,6.413,0,0,1,1.183-2.236,5.377,5.377,0,0,1,1.911-1.456,6.129,6.129,0,0,1,2.587-.52,6.282,6.282,0,0,1,2.067.312,6.527,6.527,0,0,1,1.339.6Zm12.74,6.786q.754-.208,2.028-.468a15.9,15.9,0,0,1,3.12-.26,6.5,6.5,0,0,1,2.561.442A3.934,3.934,0,0,1,87.555-12a5.145,5.145,0,0,1,.871,1.963,11.389,11.389,0,0,1,.26,2.522V0H87V-6.968A12.73,12.73,0,0,0,86.8-9.386,4.032,4.032,0,0,0,86.151-11a2.527,2.527,0,0,0-1.2-.9,5.432,5.432,0,0,0-1.859-.273,14.22,14.22,0,0,0-2.067.13A6.334,6.334,0,0,0,79.9-11.8V0h-1.69ZM92.2-6.734A8.534,8.534,0,0,1,92.7-9.815a6.787,6.787,0,0,1,1.326-2.2A5.22,5.22,0,0,1,95.9-13.325a5.7,5.7,0,0,1,2.171-.429,5.069,5.069,0,0,1,3.939,1.612,7.189,7.189,0,0,1,1.469,4.966q0,.208-.013.416t-.039.39H93.99a5.945,5.945,0,0,0,1.222,3.8,4.561,4.561,0,0,0,3.64,1.326,7.355,7.355,0,0,0,2.184-.26,9.115,9.115,0,0,0,1.17-.442l.312,1.456A7.025,7.025,0,0,1,101.153,0,8.614,8.614,0,0,1,98.8.286a7.834,7.834,0,0,1-3.016-.52A5.4,5.4,0,0,1,93.73-1.69a5.756,5.756,0,0,1-1.17-2.223A10.34,10.34,0,0,1,92.2-6.734ZM101.738-7.8a5.339,5.339,0,0,0-.988-3.276,3.2,3.2,0,0,0-2.652-1.17,3.531,3.531,0,0,0-1.625.364,4.127,4.127,0,0,0-1.248.975,4.529,4.529,0,0,0-.832,1.417,5.812,5.812,0,0,0-.351,1.69Zm16.978,1.092a8.69,8.69,0,0,1-.455,2.886,6.436,6.436,0,0,1-1.274,2.21A5.8,5.8,0,0,1,115.05-.2a5.911,5.911,0,0,1-2.47.507A5.911,5.911,0,0,1,110.11-.2a5.8,5.8,0,0,1-1.937-1.417,6.436,6.436,0,0,1-1.274-2.21,8.69,8.69,0,0,1-.455-2.886,8.69,8.69,0,0,1,.455-2.886,6.58,6.58,0,0,1,1.274-2.223,5.722,5.722,0,0,1,1.937-1.43,5.911,5.911,0,0,1,2.47-.507,5.911,5.911,0,0,1,2.47.507,5.722,5.722,0,0,1,1.937,1.43,6.58,6.58,0,0,1,1.274,2.223A8.69,8.69,0,0,1,118.716-6.708Zm-1.794,0a6.345,6.345,0,0,0-1.17-4.017,3.814,3.814,0,0,0-3.172-1.5,3.814,3.814,0,0,0-3.172,1.5,6.345,6.345,0,0,0-1.17,4.017,6.289,6.289,0,0,0,1.17,4,3.827,3.827,0,0,0,3.172,1.482A3.827,3.827,0,0,0,115.752-2.7,6.289,6.289,0,0,0,116.922-6.708Z" transform="translate(-1.924 20.176)" fill="#fff" opacity="0.9"/></svg>